# xmcd
#
# Track frame offsets: 
#        150
#        13184
#        32079
#        49788
#        66093
#        77455
#        91684
#        107475
#        124121
#        145017
#        164931
#        176827
#
# Disc length: 2487 seconds
#
# Revision: 0
# Processed by: cddbd v1.5.2PL0 Copyright (c) Steve Scherf et al.
# Submitted via: ExactAudioCopy v1.0b4
#
DISCID=9a09b50c
DTITLE=Bryce Janey - Organic Man
DYEAR=2016
DGENRE=Blues
TTITLE0=She's Gone Away
TTITLE1=1973
TTITLE2=Down Home Blues
TTITLE3=Good Ol' Dog
TTITLE4=Iowa Boogie
TTITLE5=Going Down to the River
TTITLE6=Mississippi Star
TTITLE7=Organic Man
TTITLE8=Country Fever
TTITLE9=Pain in My Heart
TTITLE10=Cell Phone Blues
TTITLE11=Too Much Fun
EXTD=
EXTT0=
EXTT1=
EXTT2=
EXTT3=
EXTT4=
EXTT5=
EXTT6=
EXTT7=
EXTT8=
EXTT9=
EXTT10=
EXTT11=
PLAYORDER=
